# xmcd
#
# Track frame offsets:
# 150
# 11912
# 25317
# 35660
# 47380
# 60335
# 74080
# 88142
# 103670
# 120457
# 132942
# 146690
# 163467
# 176442
# 187980
# 199430
#
# Disc length: 2797 seconds
#
#
# Revision: 11
# Processed by: cddbd v1.5.1PL2 Copyright (c) Steve Scherf et al.
# Submitted via: FreeRIP 2.944 
#
DISCID=eb0aeb10
DTITLE=Johnny Cash - Best Of Johnny Cash
DYEAR=2001
DGENRE=Country
TTITLE0=Ring Of Fire
TTITLE1=If I Were A Carpenter (with June Carter)
TTITLE2=Kate
TTITLE3=Folsom Prison Blues
TTITLE4=I Walk The Line
TTITLE5=It Ain't Me Baby (with June Carter)
TTITLE6=Orange Blossom Special
TTITLE7=The Night They Drove Old Dixi Down
TTITLE8=A Boy Named Sue
TTITLE9=Jackson
TTITLE10=Don't Take Your Guns To Town
TTITLE11=(Ghost) Riders In The Sky
TTITLE12=Man In Black
TTITLE13=A Thing Called Love
TTITLE14=In Them Old Cottonfields Back Home
TTITLE15=Bonanza
EXTD=YEAR: 2001
EXTT0=(June Carter, Merle Kilgore)1963
EXTT1=(Tim Hardin)1969
EXTT2=(Marty Robbins)1972
EXTT3=(Johnny Cash)1968
EXTT4=(John R. Cash)1964
EXTT5=(Bob Dylan)1965
EXTT6=(Ervin T. Rouse)1965
EXTT7=(Robbie Robertson)1975
EXTT8=(Shel Silverstein)1969
EXTT9=(Jerry Leiber, Billy Edd Wheeler)1967
EXTT10=(John R. Cash)1958
EXTT11=(Stan Jones)1979
EXTT12=(Johnny Cash)1971
EXTT13=(Jerry Reed)1972
EXTT14=(trad.)1971
EXTT15=(J.Livingston, R.Evans)1963
PLAYORDER=
